<svg xmlns="http://www.w3.org/2000/svg" xmlns:xlink="http://www.w3.org/1999/xlink" xml:space="preserve" version="1.1" style="shape-rendering:geometricPrecision;text-rendering:geometricPrecision;image-rendering:optimizeQuality;" viewBox="0 0 248 380" x="0px" y="0px" fill-rule="evenodd" clip-rule="evenodd"><defs><style type="text/css">
   
    .fil0 {fill:black;fill-rule:nonzero}
   
  </style></defs><g><path class="fil0" d="M117 153c20,0 39,9 52,25l0 -171c0,-4 4,-8 9,-7 69,12 87,77 54,134 -5,9 -17,1 -13,-7 26,-44 18,-97 -36,-111l0 197c0,40 -24,73 -66,73 -36,0 -66,-30 -66,-67 0,-36 30,-66 66,-66zm-55 122c6,6 -3,16 -10,9 -42,-42 -33,-114 19,-144 8,-4 15,7 7,12 -45,25 -52,87 -16,123zm-18 18c6,6 -4,16 -10,9 -54,-54 -42,-146 25,-184 7,-4 14,7 6,11 -59,34 -70,115 -21,164zm125 -68l0 -11c-3,-26 -25,-46 -52,-46 -28,0 -51,23 -51,51 0,29 23,52 51,52 27,0 49,-20 52,-46z"/></g><text x="0" y="319" fill="#000000" font-size="5px" font-weight="bold" font-family="'Helvetica Neue', Helvetica, Arial-Unicode, Arial, Sans-serif">Created by Briyan Design</text><text x="0" y="324" fill="#000000" font-size="5px" font-weight="bold" font-family="'Helvetica Neue', Helvetica, Arial-Unicode, Arial, Sans-serif">from the Noun Project</text></svg>